<?xml version="1.0" encoding="iso-8859-1"?>
<!-- Generator: Adobe Illustrator 19.0.0, SVG Export Plug-In . SVG Version: 6.00 Build 0)  -->
<svg version="1.1" id="Layer_1" xmlns="http://www.w3.org/2000/svg" xmlns:xlink="http://www.w3.org/1999/xlink" x="0px" y="0px"
	 viewBox="0 0 512 512" style="enable-background:new 0 0 512 512;" xml:space="preserve">
<g>
	<path style="fill:#E8EDEE;" d="M494.345,512H17.655C7.901,512,0,504.099,0,494.345V17.655C0,7.901,7.901,0,17.655,0h476.69
		C504.099,0,512,7.901,512,17.655v476.69C512,504.099,504.099,512,494.345,512"/>
	<polygon style="fill:#0F81E0;" points="211.862,79.448 300.138,79.448 300.138,44.138 211.862,44.138 	"/>
	<path style="fill:#DD342E;" d="M88.173,70.621h-52.86c-4.882,0-8.828-3.955-8.828-8.828s3.946-8.828,8.828-8.828h52.86
		c4.882,0,8.828,3.955,8.828,8.828S93.054,70.621,88.173,70.621"/>
	<path style="fill:#ECBA16;" d="M176.552,70.621h-52.966c-4.882,0-8.828-3.955-8.828-8.828s3.946-8.828,8.828-8.828h52.966
		c4.882,0,8.828,3.955,8.828,8.828S181.433,70.621,176.552,70.621"/>
	<path style="fill:#42B05C;" d="M388.311,70.621h-52.86c-4.882,0-8.828-3.955-8.828-8.828s3.946-8.828,8.828-8.828h52.86
		c4.882,0,8.828,3.955,8.828,8.828S393.192,70.621,388.311,70.621"/>
	<path style="fill:#7383BF;" d="M476.69,70.621h-52.966c-4.882,0-8.828-3.955-8.828-8.828s3.946-8.828,8.828-8.828h52.966
		c4.882,0,8.828,3.955,8.828,8.828S481.571,70.621,476.69,70.621"/>
	<polygon style="fill:#ED7161;" points="35.31,264.828 476.69,264.828 476.69,123.586 35.31,123.586 	"/>
	<path style="fill:#ECBA16;" d="M105.931,317.793H44.138c-4.882,0-8.828-3.955-8.828-8.828s3.946-8.828,8.828-8.828h61.793
		c4.882,0,8.828,3.955,8.828,8.828S110.813,317.793,105.931,317.793"/>
	<path style="fill:#7383BF;" d="M273.655,317.793H158.897c-4.882,0-8.828-3.955-8.828-8.828s3.946-8.828,8.828-8.828h114.759
		c4.882,0,8.828,3.955,8.828,8.828S278.537,317.793,273.655,317.793"/>
	<path style="fill:#ECBA16;" d="M476.69,317.793H326.621c-4.882,0-8.828-3.955-8.828-8.828s3.946-8.828,8.828-8.828H476.69
		c4.882,0,8.828,3.955,8.828,8.828S481.571,317.793,476.69,317.793"/>
	<path style="fill:#DD342E;" d="M158.897,370.759H44.138c-4.882,0-8.828-3.955-8.828-8.828s3.946-8.828,8.828-8.828h114.759
		c4.882,0,8.828,3.955,8.828,8.828S163.778,370.759,158.897,370.759"/>
	<g>
		<path style="fill:#42B05C;" d="M247.172,370.759h-35.31c-4.882,0-8.828-3.955-8.828-8.828s3.946-8.828,8.828-8.828h35.31
			c4.882,0,8.828,3.955,8.828,8.828S252.054,370.759,247.172,370.759"/>
		<path style="fill:#42B05C;" d="M105.931,423.724H44.138c-4.882,0-8.828-3.955-8.828-8.828s3.946-8.828,8.828-8.828h61.793
			c4.882,0,8.828,3.955,8.828,8.828S110.813,423.724,105.931,423.724"/>
	</g>
	<path style="fill:#ECBA16;" d="M247.172,423.724h-88.276c-4.882,0-8.828-3.955-8.828-8.828s3.946-8.828,8.828-8.828h88.276
		c4.882,0,8.828,3.955,8.828,8.828S252.054,423.724,247.172,423.724"/>
	<path style="fill:#7383BF;" d="M158.897,476.69H44.138c-4.882,0-8.828-3.955-8.828-8.828s3.946-8.828,8.828-8.828h114.759
		c4.882,0,8.828,3.955,8.828,8.828S163.778,476.69,158.897,476.69"/>
	<path style="fill:#DD342E;" d="M247.172,476.69h-35.31c-4.882,0-8.828-3.955-8.828-8.828s3.946-8.828,8.828-8.828h35.31
		c4.882,0,8.828,3.955,8.828,8.828S252.054,476.69,247.172,476.69"/>
	<polygon style="fill:#42B05C;" points="300.138,467.862 476.69,467.862 476.69,361.931 300.138,361.931 	"/>
</g>
<g>
</g>
<g>
</g>
<g>
</g>
<g>
</g>
<g>
</g>
<g>
</g>
<g>
</g>
<g>
</g>
<g>
</g>
<g>
</g>
<g>
</g>
<g>
</g>
<g>
</g>
<g>
</g>
<g>
</g>
</svg>
